<svg class="logo-svg" data-name="logo" xmlns="http://www.w3.org/2000/svg" viewBox="0 0 391.14 192.31"><title>Logo</title><path d="M91.17,181v45.82h-2V183.37L67.52,227.66,46,183.37v43.44H44.18V181h2.93L67.7,223.26,88.36,181Z" transform="translate(-44.18 -35.36)"/><path d="M99.66,181h2v45.82h-2Z" transform="translate(-44.18 -35.36)"/><path d="M112.12,181v44H126.3v1.77H110.11V181Z" transform="translate(-44.18 -35.36)"/><path d="M131.12,181h16.44v1.77H133.14v24.93h12v1.77h-12V225h14.42v1.77H131.12Z" transform="translate(-44.18 -35.36)"/><path d="M186.41,181h1.78v46.49L154.46,186v40.81h-1.77v-46.5l33.72,41.43Z" transform="translate(-44.18 -35.36)"/><path d="M216.47,179.89l22.91,46.92h-2.13l-8.68-17.47h-24.5l-8.55,17.47h-1.9Zm-.18,4.21-11.43,23.46h23Z" transform="translate(-44.18 -35.36)"/><path d="M282.46,209.34v-1.78h17.16v16.56a22.32,22.32,0,0,1-12.09,3.36h-.67a22.18,22.18,0,0,1-11.73-3.3,24.23,24.23,0,0,1-8.59-8.77,23.74,23.74,0,0,1,20.68-35.34,24.23,24.23,0,0,1,12.4,3.42v2.26a21.63,21.63,0,0,0-12.4-3.91,22,22,0,0,0-21.81,21.9,21.22,21.22,0,0,0,6.42,15.49,20.86,20.86,0,0,0,15.39,6.48,24.12,24.12,0,0,0,10.39-2.57v-13.8Z" transform="translate(-44.18 -35.36)"/><path d="M306.59,181h2.63a14.47,14.47,0,0,1,10.41,4.36,13.87,13.87,0,0,1,4.49,10.27,13.61,13.61,0,0,1-4.58,10.23q-4.57,4.35-9.83,4.34h-.43L325,226.81h-2.63l-13.87-14.54v14.54h-2Zm2,27.43h1.1a12,12,0,0,0,8.74-3.79,12.92,12.92,0,0,0-9-21.87h-.8Z" transform="translate(-44.18 -35.36)"/><path d="M335.52,220.45a23.24,23.24,0,0,1-6.94-16.71,22.59,22.59,0,0,1,7-16.55,23.77,23.77,0,0,1,33.66,0,22.62,22.62,0,0,1,7,16.58,23.29,23.29,0,0,1-6.9,16.75,22.22,22.22,0,0,1-16.5,7.11h-.92A22.08,22.08,0,0,1,335.52,220.45Zm38.7-16.58a21.21,21.21,0,0,0-6.38-15.46,21.63,21.63,0,0,0-30.82,0,21.85,21.85,0,0,0,0,30.94,21.53,21.53,0,0,0,30.79,0A21.22,21.22,0,0,0,374.22,203.87Z" transform="translate(-44.18 -35.36)"/><path d="M396.58,227.66H396a12.87,12.87,0,0,1-9.5-3.91,13.39,13.39,0,0,1-3.88-9.83V181h2v32.87a11.78,11.78,0,0,0,3.36,8.61,11.81,11.81,0,0,0,16.59,0,11.82,11.82,0,0,0,3.33-8.64V181h2V213.8a13.53,13.53,0,0,1-3.88,9.92A12.72,12.72,0,0,1,396.58,227.66Z" transform="translate(-44.18 -35.36)"/><path d="M418,181h2a14.89,14.89,0,0,1,10.82,4.36,14,14,0,0,1,4.46,10.3,13.45,13.45,0,0,1-4.61,10.2,14.68,14.68,0,0,1-10.18,4.28H420v16.68h-2Zm2,27.43h.49a12.83,12.83,0,0,0,0-25.66H420Z" transform="translate(-44.18 -35.36)"/><path class="logo-icon" d="M239.31,117.09l-66-81.73V146.19h4.7V72.09l7.65,9.58v64.52h4.7V87.55L198.73,98v48.23h4.7V103.84l32.94,41.23,3,3.76,3-3.77,32.81-41.14v42.27h4.7V98l8.32-10.44v58.6h4.7V81.7l7.65-9.6v74.09h4.7V35.36ZM178.05,48.67l58.24,72.16-6.67,8.26L178.05,64.56Zm61.32,92.63-6.75-8.45,67.94-84.18v15.9Z" transform="translate(-44.18 -35.36)"/></svg>
